Fraunces_OpticalMax.ufo
<glyph name="exclam" format="2">
  <advance width="222"/>
  <unicode hex="0021"/>
  <outline>
    <contour>
      <point x="70" y="698"/>
      <point x="86" y="713"/>
      <point x="113" y="713" type="curve" smooth="yes"/>
      <point x="142" y="713"/>
      <point x="157" y="694"/>
      <point x="157" y="666" type="curve" smooth="yes"/>
      <point x="157" y="661"/>
      <point x="156" y="653"/>
      <point x="156" y="648" type="curve" smooth="yes"/>
      <point x="124" y="180" type="line" smooth="yes"/>
      <point x="124" y="173"/>
      <point x="121" y="170"/>
      <point x="114" y="170" type="curve" smooth="yes"/>
      <point x="108" y="170"/>
      <point x="105" y="174"/>
      <point x="104" y="181" type="curve" smooth="yes"/>
      <point x="71" y="641" type="line" smooth="yes"/>
      <point x="70" y="650"/>
      <point x="70" y="659"/>
      <point x="70" y="666" type="curve" smooth="yes"/>
    </contour>
    <contour>
      <point x="111" y="-10" type="curve" smooth="yes"/>
      <point x="140" y="-10"/>
      <point x="162" y="13"/>
      <point x="162" y="42" type="curve" smooth="yes"/>
      <point x="162" y="70"/>
      <point x="140" y="92"/>
      <point x="111" y="92" type="curve" smooth="yes"/>
      <point x="82" y="92"/>
      <point x="60" y="70"/>
      <point x="60" y="42" type="curve" smooth="yes"/>
      <point x="60" y="13"/>
      <point x="82" y="-10"/>
    </contour>
  </outline>
</glyph>
<glyph name="parenleft" format="2">
  <advance width="369"/>
  <unicode hex="0028"/>
  <outline>
    <contour>
      <point x="81" y="287" type="curve" smooth="yes"/>
      <point x="81" y="62"/>
      <point x="208" y="-108"/>
      <point x="350" y="-159" type="curve" smooth="yes"/>
      <point x="353" y="-160"/>
      <point x="355" y="-160"/>
      <point x="358" y="-160" type="curve" smooth="yes"/>
      <point x="362" y="-160"/>
      <point x="364" y="-158"/>
      <point x="364" y="-155" type="curve" smooth="yes"/>
      <point x="364" y="-153"/>
      <point x="362" y="-149"/>
      <point x="358" y="-148" type="curve" smooth="yes"/>
      <point x="232" y="-89"/>
      <point x="153" y="66"/>
      <point x="153" y="287" type="curve" smooth="yes"/>
      <point x="153" y="514"/>
      <point x="232" y="675"/>
      <point x="358" y="732" type="curve" smooth="yes"/>
      <point x="362" y="734"/>
      <point x="364" y="737"/>
      <point x="364" y="740" type="curve" smooth="yes"/>
      <point x="364" y="742"/>
      <point x="362" y="745"/>
      <point x="359" y="745" type="curve" smooth="yes"/>
      <point x="356" y="745"/>
      <point x="354" y="745"/>
      <point x="351" y="744" type="curve" smooth="yes"/>
      <point x="208" y="691"/>
      <point x="81" y="518"/>
    </contour>
  </outline>
</glyph>
<glyph name="parenright" format="1">
  <advance width="395"/>
  <unicode hex="0029"/>
  <outline>
    <contour>
      <point x="314" y="295" type="curve" smooth="yes"/>
      <point x="314" y="520"/>
      <point x="187" y="690"/>
      <point x="45" y="741" type="curve" smooth="yes"/>
      <point x="42" y="742"/>
      <point x="40" y="742"/>
      <point x="37" y="742" type="curve" smooth="yes"/>
      <point x="33" y="742"/>
      <point x="31" y="740"/>
      <point x="31" y="737" type="curve" smooth="yes"/>
      <point x="31" y="735"/>
      <point x="33" y="731"/>
      <point x="37" y="730" type="curve" smooth="yes"/>
      <point x="163" y="671"/>
      <point x="242" y="516"/>
      <point x="242" y="295" type="curve" smooth="yes"/>
      <point x="242" y="68"/>
      <point x="163" y="-93"/>
      <point x="37" y="-150" type="curve" smooth="yes"/>
      <point x="33" y="-152"/>
      <point x="31" y="-155"/>
      <point x="31" y="-158" type="curve" smooth="yes"/>
      <point x="31" y="-160"/>
      <point x="33" y="-163"/>
      <point x="36" y="-163" type="curve" smooth="yes"/>
      <point x="39" y="-163"/>
      <point x="41" y="-163"/>
      <point x="44" y="-162" type="curve" smooth="yes"/>
      <point x="187" y="-109"/>
      <point x="314" y="64"/>
    </contour>
  </outline>
</glyph>
<glyph name="comma" format="2">
  <advance width="249"/>
  <unicode hex="002C"/>
  <outline>
    <contour>
      <point x="129" y="-11" type="curve" smooth="yes"/>
      <point x="163" y="-11" type="line" smooth="yes"/>
      <point x="173" y="-11"/>
      <point x="177" y="-17"/>
      <point x="177" y="-28" type="curve" smooth="yes"/>
      <point x="177.0" y="-133.89873417721518"/>
      <point x="119.02277766393416" y="-202.99871069826787"/>
      <point x="66" y="-206" type="curve" smooth="yes"/>
      <point x="58" y="-206"/>
      <point x="55" y="-209"/>
      <point x="55" y="-214" type="curve" smooth="yes"/>
      <point x="55" y="-220"/>
      <point x="58" y="-223"/>
      <point x="65" y="-223" type="curve" smooth="yes"/>
      <point x="122.0" y="-223.0"/>
      <point x="199.0" y="-158.2156862745098"/>
      <point x="199" y="1" type="curve" smooth="yes"/>
      <point x="199" y="71"/>
      <point x="171" y="103"/>
      <point x="133" y="103" type="curve" smooth="yes"/>
      <point x="99" y="103"/>
      <point x="73" y="77"/>
      <point x="73" y="46" type="curve" smooth="yes"/>
      <point x="73" y="13"/>
      <point x="97" y="-11"/>
    </contour>
  </outline>
</glyph>
<glyph name="period" format="2">
  <advance width="202"/>
  <unicode hex="002E"/>
  <outline>
    <contour>
      <point x="106.0" y="-10.0" type="curve" smooth="yes"/>
      <point x="137" y="-10.0"/>
      <point x="161" y="15"/>
      <point x="161" y="46" type="curve" smooth="yes"/>
      <point x="161" y="76"/>
      <point x="137" y="100"/>
      <point x="106.0" y="100" type="curve" smooth="yes"/>
      <point x="75" y="100"/>
      <point x="51" y="76"/>
      <point x="51" y="46" type="curve" smooth="yes"/>
      <point x="51" y="15"/>
      <point x="75" y="-10.0"/>
    </contour>
  </outline>
</glyph>
<glyph name="one" format="1">
  <advance width="376"/>
  <unicode hex="0031"/>
  <outline>
    <contour>
      <point x="57" y="575" type="line" smooth="yes"/>
      <point x="46" y="575"/>
      <point x="41" y="580"/>
      <point x="41" y="587" type="curve" smooth="yes"/>
      <point x="41" y="594"/>
      <point x="47" y="599"/>
      <point x="57" y="599" type="curve" smooth="yes"/>
      <point x="106" y="599" type="line" smooth="yes"/>
      <point x="154" y="599"/>
      <point x="179" y="614"/>
      <point x="209" y="648" type="curve" smooth="yes"/>
      <point x="214" y="654"/>
      <point x="218" y="656"/>
      <point x="224" y="656" type="curve" smooth="yes"/>
      <point x="231" y="656"/>
      <point x="235" y="651"/>
      <point x="235" y="641" type="curve" smooth="yes"/>
      <point x="235" y="67" type="line" smooth="yes"/>
      <point x="235" y="46"/>
      <point x="252" y="33"/>
      <point x="273" y="29" type="curve" smooth="yes"/>
      <point x="351" y="15" type="line" smooth="yes"/>
      <point x="358" y="14"/>
      <point x="362" y="12"/>
      <point x="362" y="7" type="curve" smooth="yes"/>
      <point x="362" y="2"/>
      <point x="359" y="0"/>
      <point x="351" y="0" type="curve" smooth="yes"/>
      <point x="38" y="0" type="line" smooth="yes"/>
      <point x="30" y="0"/>
      <point x="25" y="3"/>
      <point x="25" y="9" type="curve" smooth="yes"/>
      <point x="25" y="15"/>
      <point x="30" y="17"/>
      <point x="39" y="18" type="curve" smooth="yes"/>
      <point x="112" y="29" type="line" smooth="yes"/>
      <point x="139" y="33"/>
      <point x="161" y="44"/>
      <point x="161" y="67" type="curve" smooth="yes"/>
      <point x="161" y="501" type="line" smooth="yes"/>
      <point x="161" y="553"/>
      <point x="141" y="575"/>
      <point x="108" y="575" type="curve" smooth="yes"/>
    </contour>
  </outline>
</glyph>
<glyph name="two" format="1">
  <advance width="476"/>
  <unicode hex="0032"/>
  <outline>
    <contour>
      <point x="202" y="270" type="curve" smooth="yes"/>
      <point x="77" y="196"/>
      <point x="26" y="104"/>
      <point x="26" y="8" type="curve" smooth="yes"/>
      <point x="26" y="-4"/>
      <point x="32" y="-10"/>
      <point x="42" y="-10" type="curve" smooth="yes"/>
      <point x="65" y="-10"/>
      <point x="61" y="70"/>
      <point x="114" y="70" type="curve" smooth="yes"/>
      <point x="182.39449541284404" y="70.0"/>
      <point x="238.08715596330273" y="-10.0"/>
      <point x="327" y="-10" type="curve" smooth="yes"/>
      <point x="402" y="-10"/>
      <point x="444" y="35"/>
      <point x="444" y="119" type="curve" smooth="yes"/>
      <point x="444" y="124"/>
      <point x="442" y="128"/>
      <point x="437" y="128" type="curve" smooth="yes"/>
      <point x="434" y="128"/>
      <point x="431" y="125"/>
      <point x="430" y="122" type="curve" smooth="yes"/>
      <point x="415" y="76"/>
      <point x="398" y="60"/>
      <point x="352" y="60" type="curve" smooth="yes"/>
      <point x="291.49038461538464" y="60.0"/>
      <point x="227.0769230769231" y="121.0"/>
      <point x="149" y="121" type="curve" smooth="yes"/>
      <point x="81" y="121"/>
      <point x="47" y="67"/>
      <point x="47" y="10" type="curve"/>
      <point x="50" y="10" type="line"/>
      <point x="50" y="100"/>
      <point x="82" y="168"/>
      <point x="213" y="244" type="curve" smooth="yes"/>
      <point x="378" y="340"/>
      <point x="427" y="406"/>
      <point x="427" y="499" type="curve" smooth="yes"/>
      <point x="427" y="585"/>
      <point x="361" y="650"/>
      <point x="252" y="650" type="curve" smooth="yes"/>
      <point x="130" y="650"/>
      <point x="51" y="567"/>
      <point x="51" y="509" type="curve" smooth="yes"/>
      <point x="51" y="473"/>
      <point x="69" y="454"/>
      <point x="98" y="454" type="curve" smooth="yes"/>
      <point x="124" y="454"/>
      <point x="144" y="477"/>
      <point x="144" y="509" type="curve" smooth="yes"/>
      <point x="144" y="529" type="line" smooth="yes"/>
      <point x="144" y="598"/>
      <point x="173" y="635"/>
      <point x="236" y="635" type="curve" smooth="yes"/>
      <point x="295" y="635"/>
      <point x="346" y="588"/>
      <point x="346" y="500" type="curve" smooth="yes"/>
      <point x="346" y="394"/>
      <point x="302" y="329"/>
    </contour>
  </outline>
</glyph>
<glyph name="three" format="1">
  <advance width="443"/>
  <unicode hex="0033"/>
  <outline>
    <contour>
      <point x="176" y="335" type="line"/>
      <point x="408" y="604" type="line" smooth="yes"/>
      <point x="415" y="612"/>
      <point x="422" y="622"/>
      <point x="422" y="631" type="curve" smooth="yes"/>
      <point x="422" y="636"/>
      <point x="416" y="640"/>
      <point x="411" y="640" type="curve" smooth="yes"/>
      <point x="86" y="640" type="line" smooth="yes"/>
      <point x="79" y="640"/>
      <point x="73" y="635"/>
      <point x="72" y="628" type="curve" smooth="yes"/>
      <point x="52" y="507" type="line" smooth="yes"/>
      <point x="50" y="497"/>
      <point x="55" y="493"/>
      <point x="59" y="493" type="curve" smooth="yes"/>
      <point x="63" y="493"/>
      <point x="67" y="496"/>
      <point x="68" y="498" type="curve" smooth="yes"/>
      <point x="99" y="558" type="line" smooth="yes"/>
      <point x="107" y="573"/>
      <point x="117" y="579"/>
      <point x="132" y="579" type="curve" smooth="yes"/>
      <point x="377" y="579" type="line"/>
      <point x="374" y="598" type="line"/>
      <point x="158" y="344" type="line" smooth="yes"/>
      <point x="155" y="341"/>
      <point x="153" y="338"/>
      <point x="153" y="335" type="curve" smooth="yes"/>
      <point x="153" y="330"/>
      <point x="158" y="326"/>
      <point x="166" y="326" type="curve" smooth="yes"/>
      <point x="196" y="326" type="line" smooth="yes"/>
      <point x="279.21088435374145" y="326"/>
      <point x="335.0" y="272.0"/>
      <point x="335" y="156" type="curve" smooth="yes"/>
      <point x="335.0" y="73.0"/>
      <point x="287" y="5"/>
      <point x="217" y="4" type="curve" smooth="yes"/>
      <point x="155" y="3"/>
      <point x="123" y="44"/>
      <point x="123" y="94" type="curve" smooth="yes"/>
      <point x="123" y="120" type="line" smooth="yes"/>
      <point x="123" y="151"/>
      <point x="102" y="173"/>
      <point x="76" y="173" type="curve" smooth="yes"/>
      <point x="48" y="173"/>
      <point x="25" y="151"/>
      <point x="25" y="122" type="curve" smooth="yes"/>
      <point x="25.0" y="49.0"/>
      <point x="83" y="-10.0"/>
      <point x="202" y="-10" type="curve" smooth="yes"/>
      <point x="318" y="-10.0"/>
      <point x="409.0" y="72"/>
      <point x="409" y="177" type="curve" smooth="yes"/>
      <point x="409.0" y="293.0"/>
      <point x="329.780487804878" y="342.0"/>
      <point x="206" y="342" type="curve" smooth="yes"/>
      <point x="199" y="342"/>
      <point x="184" y="342"/>
      <point x="175" y="342" type="curve"/>
    </contour>
  </outline>
</glyph>
<glyph name="seven" format="1">
  <advance width="420"/>
  <unicode hex="0037"/>
  <outline>
    <contour>
      <point x="349" y="557" type="curve" smooth="yes"/>
      <point x="292" y="457" type="line" smooth="yes"/>
      <point x="194" y="284"/>
      <point x="130" y="174"/>
      <point x="130" y="81" type="curve" smooth="yes"/>
      <point x="130" y="18"/>
      <point x="153" y="-10"/>
      <point x="187" y="-10" type="curve" smooth="yes"/>
      <point x="221" y="-10"/>
      <point x="241" y="12"/>
      <point x="241" y="46" type="curve" smooth="yes"/>
      <point x="241" y="89"/>
      <point x="209" y="132"/>
      <point x="209" y="190" type="curve" smooth="yes"/>
      <point x="209" y="260"/>
      <point x="250" y="341"/>
      <point x="304" y="429" type="curve" smooth="yes"/>
      <point x="411" y="604" type="line" smooth="yes"/>
      <point x="418" y="615"/>
      <point x="425" y="623"/>
      <point x="425" y="631" type="curve" smooth="yes"/>
      <point x="425" y="636"/>
      <point x="419" y="640"/>
      <point x="414" y="640" type="curve" smooth="yes"/>
      <point x="69" y="640" type="line" smooth="yes"/>
      <point x="62.0" y="640.0"/>
      <point x="56" y="635"/>
      <point x="55" y="628" type="curve" smooth="yes"/>
      <point x="35" y="503" type="line" smooth="yes"/>
      <point x="33" y="493"/>
      <point x="38" y="489"/>
      <point x="42" y="489" type="curve" smooth="yes"/>
      <point x="46" y="489"/>
      <point x="50" y="492"/>
      <point x="51" y="494" type="curve" smooth="yes"/>
      <point x="82" y="554" type="line" smooth="yes"/>
      <point x="90" y="569"/>
      <point x="100.0" y="575.0"/>
      <point x="115" y="575" type="curve" smooth="yes"/>
      <point x="383" y="575" type="line"/>
      <point x="372" y="617" type="line"/>
      <point x="372" y="599"/>
      <point x="363" y="581"/>
    </contour>
  </outline>
</glyph>
<glyph name="eight" format="1">
  <advance width="476"/>
  <unicode hex="0038"/>
  <outline>
    <contour>
      <point x="240" y="-10" type="curve" smooth="yes"/>
      <point x="345" y="-10"/>
      <point x="429" y="59"/>
      <point x="429" y="154" type="curve" smooth="yes"/>
      <point x="429" y="219"/>
      <point x="385" y="286"/>
      <point x="273" y="331" type="curve" smooth="yes"/>
      <point x="161" y="376"/>
      <point x="117" y="429"/>
      <point x="117" y="506" type="curve" smooth="yes"/>
      <point x="117" y="581"/>
      <point x="168" y="631"/>
      <point x="239" y="631" type="curve" smooth="yes"/>
      <point x="321" y="631"/>
      <point x="367" y="570"/>
      <point x="367" y="501" type="curve" smooth="yes"/>
      <point x="367" y="431"/>
      <point x="326" y="356"/>
      <point x="271" y="324" type="curve"/>
      <point x="281" y="302" type="line"/>
      <point x="372" y="325"/>
      <point x="440" y="404"/>
      <point x="440" y="489" type="curve" smooth="yes"/>
      <point x="440" y="587"/>
      <point x="350" y="650"/>
      <point x="243" y="650" type="curve" smooth="yes"/>
      <point x="127" y="650"/>
      <point x="47" y="580"/>
      <point x="47" y="483" type="curve" smooth="yes"/>
      <point x="47" y="399"/>
      <point x="101" y="330"/>
      <point x="220" y="282" type="curve" smooth="yes"/>
      <point x="325" y="240"/>
      <point x="356" y="186"/>
      <point x="356" y="132" type="curve" smooth="yes"/>
      <point x="356" y="55"/>
      <point x="307" y="9"/>
      <point x="241" y="9" type="curve" smooth="yes"/>
      <point x="172" y="9"/>
      <point x="121" y="52"/>
      <point x="121" y="142" type="curve" smooth="yes"/>
      <point x="121" y="209"/>
      <point x="156" y="270"/>
      <point x="215" y="302" type="curve"/>
      <point x="206" y="310" type="line"/>
      <point x="108" y="292"/>
      <point x="50" y="219"/>
      <point x="50" y="142" type="curve" smooth="yes"/>
      <point x="50" y="49"/>
      <point x="133" y="-10"/>
    </contour>
  </outline>
</glyph>
<glyph name="nine" format="1">
  <advance width="494"/>
  <unicode hex="0039"/>
  <outline>
    <contour>
      <point x="218" y="-15" type="curve" smooth="yes"/>
      <point x="351" y="-15"/>
      <point x="454" y="97"/>
      <point x="454" y="329" type="curve" smooth="yes"/>
      <point x="454" y="525"/>
      <point x="364" y="646"/>
      <point x="233" y="646" type="curve" smooth="yes"/>
      <point x="108" y="646"/>
      <point x="28" y="554"/>
      <point x="28" y="433" type="curve" smooth="yes"/>
      <point x="28" y="308"/>
      <point x="112" y="243"/>
      <point x="213" y="243" type="curve" smooth="yes"/>
      <point x="300" y="243"/>
      <point x="382" y="294"/>
      <point x="382" y="438" type="curve"/>
      <point x="365" y="450" type="line"/>
      <point x="365" y="317"/>
      <point x="296" y="264"/>
      <point x="232" y="264" type="curve" smooth="yes"/>
      <point x="157" y="264"/>
      <point x="109" y="329"/>
      <point x="109" y="445" type="curve" smooth="yes"/>
      <point x="109" y="566"/>
      <point x="159" y="627"/>
      <point x="224" y="627" type="curve" smooth="yes"/>
      <point x="313" y="627"/>
      <point x="372" y="540"/>
      <point x="372" y="331" type="curve" smooth="yes"/>
      <point x="372" y="101"/>
      <point x="310" y="6"/>
      <point x="224" y="6" type="curve" smooth="yes"/>
      <point x="169" y="6"/>
      <point x="140" y="38"/>
      <point x="140" y="86" type="curve" smooth="yes"/>
      <point x="140" y="109" type="line" smooth="yes"/>
      <point x="140" y="148"/>
      <point x="125" y="168"/>
      <point x="93" y="168" type="curve" smooth="yes"/>
      <point x="61" y="168"/>
      <point x="46" y="147"/>
      <point x="46" y="111" type="curve" smooth="yes"/>
      <point x="46" y="44"/>
      <point x="119" y="-15"/>
    </contour>
  </outline>
</glyph>
<glyph name="colon" format="2">
  <advance width="222"/>
  <unicode hex="003A"/>
  <outline>
    <contour>
      <point x="110.898" y="-10.33" type="curve" smooth="yes"/>
      <point x="139.821" y="-10.33"/>
      <point x="162.213" y="12.995"/>
      <point x="162.213" y="41.918" type="curve" smooth="yes"/>
      <point x="162.213" y="69.908"/>
      <point x="139.821" y="92.3"/>
      <point x="110.898" y="92.3" type="curve" smooth="yes"/>
      <point x="81.975" y="92.3"/>
      <point x="59.583" y="69.908"/>
      <point x="59.583" y="41.918" type="curve" smooth="yes"/>
      <point x="59.583" y="12.995"/>
      <point x="81.975" y="-10.33"/>
    </contour>
    <contour>
      <point x="110.898" y="234.67" type="curve" smooth="yes"/>
      <point x="139.821" y="234.67"/>
      <point x="162.213" y="257.995"/>
      <point x="162.213" y="286.918" type="curve" smooth="yes"/>
      <point x="162.213" y="314.908"/>
      <point x="139.821" y="337.3"/>
      <point x="110.898" y="337.3" type="curve" smooth="yes"/>
      <point x="81.975" y="337.3"/>
      <point x="59.583" y="314.908"/>
      <point x="59.583" y="286.918" type="curve" smooth="yes"/>
      <point x="59.583" y="257.995"/>
      <point x="81.975" y="234.67"/>
    </contour>
  </outline>
</glyph>
<glyph name="semicolon" format="1">
  <advance width="255"/>
  <unicode hex="003B"/>
  <outline>
    <contour>
      <point x="129.357" y="-10.263" type="curve" smooth="yes"/>
      <point x="161.07899999999998" y="-10.263" type="line" smooth="yes"/>
      <point x="170.409" y="-10.263"/>
      <point x="174.141" y="-15.860999999999999"/>
      <point x="174.141" y="-26.124" type="curve" smooth="yes"/>
      <point x="174.141" y="-124.92751898734176"/>
      <point x="120.04825156045057" y="-189.3977970814839"/>
      <point x="70.578" y="-192.19799999999998" type="curve" smooth="yes"/>
      <point x="63.114" y="-192.19799999999998"/>
      <point x="60.315" y="-194.99699999999999"/>
      <point x="60.315" y="-199.66199999999998" type="curve" smooth="yes"/>
      <point x="60.315" y="-205.26"/>
      <point x="63.114" y="-208.059"/>
      <point x="69.645" y="-208.059" type="curve" smooth="yes"/>
      <point x="122.826" y="-208.059"/>
      <point x="194.667" y="-147.61523529411764"/>
      <point x="194.667" y="0.9329999999999999" type="curve" smooth="yes"/>
      <point x="194.667" y="66.243"/>
      <point x="168.54299999999998" y="96.09899999999999"/>
      <point x="133.089" y="96.09899999999999" type="curve" smooth="yes"/>
      <point x="101.36699999999999" y="96.09899999999999"/>
      <point x="77.109" y="71.841"/>
      <point x="77.109" y="42.918" type="curve" smooth="yes"/>
      <point x="77.109" y="12.129"/>
      <point x="99.50099999999999" y="-10.263"/>
    </contour>
    <contour>
      <point x="131.0" y="232.0" type="curve" smooth="yes"/>
      <point x="162.0" y="232.0"/>
      <point x="186" y="257"/>
      <point x="186" y="288" type="curve" smooth="yes"/>
      <point x="186" y="318"/>
      <point x="162" y="342"/>
      <point x="131.0" y="342.0" type="curve" smooth="yes"/>
      <point x="100" y="342"/>
      <point x="76" y="318"/>
      <point x="76" y="288" type="curve" smooth="yes"/>
      <point x="76" y="257"/>
      <point x="100.0" y="232.0"/>
    </contour>
  </outline>
</glyph>
<glyph name="question" format="1">
  <advance width="381"/>
  <unicode hex="003F"/>
  <outline>
    <contour>
      <point x="133" y="286" type="line" smooth="yes"/>
      <point x="132" y="293"/>
      <point x="132" y="295"/>
      <point x="132" y="299" type="curve" smooth="yes"/>
      <point x="132" y="307"/>
      <point x="137" y="314"/>
      <point x="146" y="320" type="curve" smooth="yes"/>
      <point x="205" y="362" type="line" smooth="yes"/>
      <point x="269" y="408"/>
      <point x="299" y="458"/>
      <point x="299" y="544" type="curve" smooth="yes"/>
      <point x="299" y="646"/>
      <point x="259" y="695"/>
      <point x="197" y="695" type="curve" smooth="yes"/>
      <point x="138" y="695"/>
      <point x="104" y="667"/>
      <point x="104" y="597" type="curve" smooth="yes"/>
      <point x="104" y="580" type="line" smooth="yes"/>
      <point x="104" y="554"/>
      <point x="84" y="536"/>
      <point x="60" y="536" type="curve" smooth="yes"/>
      <point x="33" y="536"/>
      <point x="15" y="552"/>
      <point x="15" y="580" type="curve" smooth="yes"/>
      <point x="15" y="644"/>
      <point x="88" y="710"/>
      <point x="210" y="710" type="curve" smooth="yes"/>
      <point x="315" y="710"/>
      <point x="375" y="651"/>
      <point x="375" y="552" type="curve" smooth="yes"/>
      <point x="375" y="479"/>
      <point x="331" y="413"/>
      <point x="220" y="352" type="curve" smooth="yes"/>
      <point x="211" y="347" type="line" smooth="yes"/>
      <point x="196" y="339"/>
      <point x="189" y="326"/>
      <point x="186" y="299" type="curve" smooth="yes"/>
      <point x="171" y="167" type="line" smooth="yes"/>
      <point x="170" y="161"/>
      <point x="168" y="158"/>
      <point x="162" y="158" type="curve" smooth="yes"/>
      <point x="154" y="158"/>
      <point x="151" y="162"/>
      <point x="150" y="167" type="curve" smooth="yes"/>
    </contour>
    <contour>
      <point x="156" y="-7" type="curve" smooth="yes"/>
      <point x="185" y="-7"/>
      <point x="207" y="16"/>
      <point x="207" y="45" type="curve" smooth="yes"/>
      <point x="207" y="73"/>
      <point x="185" y="95"/>
      <point x="156" y="95" type="curve" smooth="yes"/>
      <point x="127" y="95"/>
      <point x="105" y="73"/>
      <point x="105" y="45" type="curve" smooth="yes"/>
      <point x="105" y="16"/>
      <point x="127" y="-7"/>
    </contour>
  </outline>
</glyph>
<glyph name="B" format="2">
  <advance width="603"/>
  <unicode hex="0042"/>
  <outline>
    <contour>
      <point x="568" y="172" type="curve" smooth="yes"/>
      <point x="568" y="272"/>
      <point x="479" y="339"/>
      <point x="346" y="339" type="curve" smooth="yes"/>
      <point x="335" y="339"/>
      <point x="326" y="339"/>
      <point x="317" y="339" type="curve"/>
      <point x="318" y="335" type="line"/>
      <point x="444" y="335"/>
      <point x="528" y="403"/>
      <point x="528" y="505" type="curve" smooth="yes"/>
      <point x="528" y="624"/>
      <point x="427" y="700"/>
      <point x="266" y="700" type="curve" smooth="yes"/>
      <point x="61" y="700" type="line" smooth="yes"/>
      <point x="41" y="700"/>
      <point x="30" y="697"/>
      <point x="30" y="691" type="curve" smooth="yes"/>
      <point x="30" y="685"/>
      <point x="40" y="682"/>
      <point x="58" y="678" type="curve" smooth="yes"/>
      <point x="83" y="672" type="line" smooth="yes"/>
      <point x="106" y="667"/>
      <point x="120" y="650"/>
      <point x="120" y="627" type="curve" smooth="yes"/>
      <point x="120" y="51" type="line" smooth="yes"/>
      <point x="120" y="38"/>
      <point x="110" y="28"/>
      <point x="94" y="25" type="curve" smooth="yes"/>
      <point x="39" y="15" type="line" smooth="yes"/>
      <point x="32" y="14"/>
      <point x="29" y="10"/>
      <point x="29" y="7" type="curve" smooth="yes"/>
      <point x="29" y="2"/>
      <point x="34" y="0"/>
      <point x="42" y="0" type="curve" smooth="yes"/>
      <point x="323" y="0" type="line" smooth="yes"/>
      <point x="472" y="0"/>
      <point x="568" y="67"/>
    </contour>
    <contour>
      <point x="301" y="328" type="line" smooth="yes"/>
      <point x="416" y="328"/>
      <point x="492" y="270"/>
      <point x="492" y="180" type="curve" smooth="yes"/>
      <point x="492" y="87"/>
      <point x="425" y="22"/>
      <point x="332" y="22" type="curve" smooth="yes"/>
      <point x="237" y="22" type="line" smooth="yes"/>
      <point x="215" y="22"/>
      <point x="200" y="35"/>
      <point x="200" y="56" type="curve" smooth="yes"/>
      <point x="200" y="681" type="line"/>
      <point x="261" y="681" type="line" smooth="yes"/>
      <point x="378" y="681"/>
      <point x="453" y="614"/>
      <point x="453" y="513" type="curve" smooth="yes"/>
      <point x="453" y="415"/>
      <point x="388" y="346"/>
      <point x="298" y="346" type="curve" smooth="yes"/>
      <point x="188" y="346" type="line"/>
      <point x="187" y="328" type="line"/>
    </contour>
  </outline>
</glyph>
<glyph name="D" format="1">
  <advance width="688"/>
  <unicode hex="0044"/>
  <outline>
    <contour>
      <point x="21" y="7" type="curve" smooth="yes"/>
      <point x="21" y="2"/>
      <point x="24" y="0"/>
      <point x="30" y="0" type="curve" smooth="yes"/>
      <point x="321" y="0" type="line" smooth="yes"/>
      <point x="511" y="0"/>
      <point x="655" y="132"/>
      <point x="655" y="311" type="curve" smooth="yes"/>
      <point x="655" y="539"/>
      <point x="484" y="700"/>
      <point x="265" y="700" type="curve" smooth="yes"/>
      <point x="52" y="700" type="line" smooth="yes"/>
      <point x="30" y="700"/>
      <point x="21" y="697"/>
      <point x="21" y="691" type="curve" smooth="yes"/>
      <point x="21" y="687"/>
      <point x="25" y="686"/>
      <point x="32" y="684" type="curve" smooth="yes"/>
      <point x="87" y="671" type="line" smooth="yes"/>
      <point x="102" y="667"/>
      <point x="111" y="660"/>
      <point x="111" y="644" type="curve" smooth="yes"/>
      <point x="111" y="57" type="line" smooth="yes"/>
      <point x="111" y="37"/>
      <point x="100" y="27"/>
      <point x="76" y="23" type="curve" smooth="yes"/>
      <point x="31" y="15" type="line" smooth="yes"/>
      <point x="26" y="14"/>
      <point x="21" y="12"/>
    </contour>
    <contour>
      <point x="321" y="22" type="curve" smooth="yes"/>
      <point x="237" y="22" type="line" smooth="yes"/>
      <point x="207" y="22"/>
      <point x="190" y="36"/>
      <point x="190" y="61" type="curve" smooth="yes"/>
      <point x="190" y="646" type="line" smooth="yes"/>
      <point x="190" y="669"/>
      <point x="198" y="680"/>
      <point x="218" y="680" type="curve" smooth="yes"/>
      <point x="265" y="680" type="line" smooth="yes"/>
      <point x="451" y="680"/>
      <point x="571" y="543"/>
      <point x="571" y="331" type="curve" smooth="yes"/>
      <point x="571" y="143"/>
      <point x="466" y="22"/>
    </contour>
  </outline>
</glyph>
<glyph name="G" format="1">
  <advance width="698"/>
  <unicode hex="0047"/>
  <outline>
    <contour>
      <point x="621" y="6" type="curve" smooth="yes"/>
      <point x="621" y="223" type="line" smooth="yes"/>
      <point x="621" y="239"/>
      <point x="625" y="248"/>
      <point x="636" y="253" type="curve" smooth="yes"/>
      <point x="682" y="273" type="line" smooth="yes"/>
      <point x="688" y="276"/>
      <point x="690" y="278"/>
      <point x="690" y="282" type="curve" smooth="yes"/>
      <point x="690" y="286"/>
      <point x="687" y="288"/>
      <point x="682" y="288" type="curve" smooth="yes"/>
      <point x="452" y="288" type="line" smooth="yes"/>
      <point x="444" y="288"/>
      <point x="440" y="285"/>
      <point x="440" y="279" type="curve" smooth="yes"/>
      <point x="440" y="273"/>
      <point x="444" y="271"/>
      <point x="452" y="269" type="curve" smooth="yes"/>
      <point x="527" y="254" type="line" smooth="yes"/>
      <point x="541" y="251"/>
      <point x="548" y="241"/>
      <point x="548" y="228" type="curve" smooth="yes"/>
      <point x="548" y="92" type="line" smooth="yes"/>
      <point x="548" y="47"/>
      <point x="499" y="24"/>
      <point x="403" y="24" type="curve" smooth="yes"/>
      <point x="242" y="24"/>
      <point x="133" y="157"/>
      <point x="133" y="365" type="curve" smooth="yes"/>
      <point x="133" y="562"/>
      <point x="233" y="694"/>
      <point x="397" y="694" type="curve" smooth="yes"/>
      <point x="488" y="694"/>
      <point x="580" y="628"/>
      <point x="625" y="523" type="curve" smooth="yes"/>
      <point x="628" y="516"/>
      <point x="632" y="513"/>
      <point x="636" y="513" type="curve" smooth="yes"/>
      <point x="640" y="513"/>
      <point x="643" y="517"/>
      <point x="643" y="522" type="curve" smooth="yes"/>
      <point x="643" y="528"/>
      <point x="641" y="530"/>
      <point x="639" y="541" type="curve" smooth="yes"/>
      <point x="605" y="702" type="line" smooth="yes"/>
      <point x="603" y="711"/>
      <point x="598" y="713"/>
      <point x="593" y="713" type="curve" smooth="yes"/>
      <point x="581" y="713"/>
      <point x="550" y="685"/>
      <point x="531" y="685" type="curve" smooth="yes"/>
      <point x="513" y="685"/>
      <point x="477" y="714"/>
      <point x="400" y="714" type="curve" smooth="yes"/>
      <point x="180" y="714"/>
      <point x="40" y="556"/>
      <point x="40" y="330" type="curve" smooth="yes"/>
      <point x="40" y="124"/>
      <point x="179" y="-11"/>
      <point x="362" y="-11" type="curve" smooth="yes"/>
      <point x="461" y="-11"/>
      <point x="524" y="32"/>
      <point x="545" y="32" type="curve" smooth="yes"/>
      <point x="563" y="32"/>
      <point x="592" y="-11"/>
      <point x="605" y="-11" type="curve" smooth="yes"/>
      <point x="615" y="-11"/>
      <point x="621" y="-4"/>
    </contour>
  </outline>
</glyph>
<glyph name="H" format="2">
  <advance width="718"/>
  <unicode hex="0048"/>
  <outline>
    <contour>
      <point x="159" y="344" type="line"/>
      <point x="159" y="321" type="line"/>
      <point x="543" y="321" type="line"/>
      <point x="543" y="344" type="line"/>
    </contour>
    <contour>
      <point x="199" y="50" type="curve" smooth="yes"/>
      <point x="199" y="641" type="line" smooth="yes"/>
      <point x="199" y="659"/>
      <point x="205" y="667"/>
      <point x="221" y="671" type="curve" smooth="yes"/>
      <point x="281" y="686" type="line" smooth="yes"/>
      <point x="286" y="687"/>
      <point x="289" y="689"/>
      <point x="289" y="693" type="curve" smooth="yes"/>
      <point x="289" y="698"/>
      <point x="285" y="700"/>
      <point x="278" y="700" type="curve" smooth="yes"/>
      <point x="41" y="700" type="line" smooth="yes"/>
      <point x="33" y="700"/>
      <point x="30" y="698"/>
      <point x="30" y="693" type="curve" smooth="yes"/>
      <point x="30" y="689"/>
      <point x="33" y="687"/>
      <point x="38" y="686" type="curve" smooth="yes"/>
      <point x="98" y="671" type="line" smooth="yes"/>
      <point x="113" y="667"/>
      <point x="120" y="659"/>
      <point x="120" y="641" type="curve" smooth="yes"/>
      <point x="120" y="50" type="line" smooth="yes"/>
      <point x="120" y="35"/>
      <point x="113" y="28"/>
      <point x="97" y="25" type="curve" smooth="yes"/>
      <point x="40" y="15" type="line" smooth="yes"/>
      <point x="33" y="14"/>
      <point x="30" y="12"/>
      <point x="30" y="7" type="curve" smooth="yes"/>
      <point x="30" y="2"/>
      <point x="32" y="0"/>
      <point x="39" y="0" type="curve" smooth="yes"/>
      <point x="280" y="0" type="line" smooth="yes"/>
      <point x="286" y="0"/>
      <point x="289" y="2"/>
      <point x="289" y="7" type="curve" smooth="yes"/>
      <point x="289" y="11"/>
      <point x="286" y="13"/>
      <point x="281" y="14" type="curve" smooth="yes"/>
      <point x="221" y="25" type="line" smooth="yes"/>
      <point x="205" y="28"/>
      <point x="199" y="35"/>
    </contour>
    <contour>
      <point x="598" y="50" type="curve" smooth="yes"/>
      <point x="598" y="641" type="line" smooth="yes"/>
      <point x="598" y="659"/>
      <point x="604" y="667"/>
      <point x="620" y="671" type="curve" smooth="yes"/>
      <point x="680" y="686" type="line" smooth="yes"/>
      <point x="685" y="687"/>
      <point x="688" y="689"/>
      <point x="688" y="693" type="curve" smooth="yes"/>
      <point x="688" y="698"/>
      <point x="684" y="700"/>
      <point x="677" y="700" type="curve" smooth="yes"/>
      <point x="440" y="700" type="line" smooth="yes"/>
      <point x="432" y="700"/>
      <point x="429" y="698"/>
      <point x="429" y="693" type="curve" smooth="yes"/>
      <point x="429" y="689"/>
      <point x="432" y="687"/>
      <point x="437" y="686" type="curve" smooth="yes"/>
      <point x="497" y="671" type="line" smooth="yes"/>
      <point x="512" y="667"/>
      <point x="519" y="659"/>
      <point x="519" y="641" type="curve" smooth="yes"/>
      <point x="519" y="50" type="line" smooth="yes"/>
      <point x="519" y="35"/>
      <point x="512" y="28"/>
      <point x="496" y="25" type="curve" smooth="yes"/>
      <point x="439" y="15" type="line" smooth="yes"/>
      <point x="432" y="14"/>
      <point x="429" y="12"/>
      <point x="429" y="7" type="curve" smooth="yes"/>
      <point x="429" y="2"/>
      <point x="431" y="0"/>
      <point x="438" y="0" type="curve" smooth="yes"/>
      <point x="679" y="0" type="line" smooth="yes"/>
      <point x="685" y="0"/>
      <point x="688" y="2"/>
      <point x="688" y="7" type="curve" smooth="yes"/>
      <point x="688" y="11"/>
      <point x="685" y="13"/>
      <point x="680" y="14" type="curve" smooth="yes"/>
      <point x="620" y="25" type="line" smooth="yes"/>
      <point x="604" y="28"/>
      <point x="598" y="35"/>
    </contour>
  </outline>
</glyph>
<glyph name="J" format="1">
  <advance width="370"/>
  <unicode hex="004A"/>
  <outline>
    <contour>
      <point x="293" y="142" type="curve" smooth="yes"/>
      <point x="293" y="170"/>
      <point x="286" y="192"/>
      <point x="274" y="223" type="curve" smooth="yes"/>
      <point x="263" y="251"/>
      <point x="261" y="276"/>
      <point x="261" y="303" type="curve" smooth="yes"/>
      <point x="261" y="633" type="line" smooth="yes"/>
      <point x="261" y="656"/>
      <point x="270" y="668"/>
      <point x="288" y="673" type="curve" smooth="yes"/>
      <point x="332" y="686" type="line" smooth="yes"/>
      <point x="338" y="688"/>
      <point x="341" y="690"/>
      <point x="341" y="694" type="curve" smooth="yes"/>
      <point x="341" y="698"/>
      <point x="338" y="700"/>
      <point x="330" y="700" type="curve" smooth="yes"/>
      <point x="95" y="700" type="line" smooth="yes"/>
      <point x="87" y="700"/>
      <point x="84" y="698"/>
      <point x="84" y="693" type="curve" smooth="yes"/>
      <point x="84" y="689"/>
      <point x="87" y="688"/>
      <point x="95" y="686" type="curve" smooth="yes"/>
      <point x="156" y="673" type="line" smooth="yes"/>
      <point x="174" y="669"/>
      <point x="182" y="658"/>
      <point x="182" y="635" type="curve" smooth="yes"/>
      <point x="182" y="281" type="line" smooth="yes"/>
      <point x="182" y="253"/>
      <point x="188" y="217"/>
      <point x="206" y="189" type="curve" smooth="yes"/>
      <point x="230" y="153"/>
      <point x="241" y="127"/>
      <point x="241" y="97" type="curve" smooth="yes"/>
      <point x="241" y="39"/>
      <point x="209" y="6"/>
      <point x="159" y="6" type="curve" smooth="yes"/>
      <point x="115" y="6"/>
      <point x="100" y="31"/>
      <point x="100" y="69" type="curve" smooth="yes"/>
      <point x="100" y="97" type="line" smooth="yes"/>
      <point x="100" y="125"/>
      <point x="86" y="146"/>
      <point x="57" y="146" type="curve" smooth="yes"/>
      <point x="27" y="146"/>
      <point x="12" y="123"/>
      <point x="12" y="89" type="curve" smooth="yes"/>
      <point x="12" y="32"/>
      <point x="59" y="-10"/>
      <point x="144" y="-10" type="curve" smooth="yes"/>
      <point x="236" y="-10"/>
      <point x="293" y="50"/>
    </contour>
    <contour>
      <point x="212" y="732" type="move" name="center"/>
    </contour>
  </outline>
</glyph>
<glyph name="K" format="2">
  <advance width="628"/>
  <unicode hex="004B"/>
  <outline>
    <contour>
      <point x="144" y="201" type="line"/>
      <point x="153" y="189" type="line"/>
      <point x="514" y="604" type="line" smooth="yes"/>
      <point x="547" y="642"/>
      <point x="587" y="675"/>
      <point x="625" y="685" type="curve" smooth="yes"/>
      <point x="630" y="686"/>
      <point x="633.0" y="689.0"/>
      <point x="633" y="694" type="curve" smooth="yes"/>
      <point x="632" y="698"/>
      <point x="631" y="700"/>
      <point x="624" y="700" type="curve" smooth="yes"/>
      <point x="451" y="700" type="line" smooth="yes"/>
      <point x="445" y="700"/>
      <point x="440.0" y="697"/>
      <point x="440" y="692" type="curve" smooth="yes"/>
      <point x="440.0" y="687"/>
      <point x="443" y="685"/>
      <point x="449" y="683" type="curve" smooth="yes"/>
      <point x="490" y="668" type="line" smooth="yes"/>
      <point x="502" y="664"/>
      <point x="510" y="655"/>
      <point x="510.0" y="645" type="curve" smooth="yes"/>
      <point x="510.0" y="635.0"/>
      <point x="506" y="625"/>
      <point x="495" y="612" type="curve" smooth="yes"/>
    </contour>
    <contour>
      <point x="295" y="361" type="line"/>
      <point x="468" y="69" type="line" smooth="yes"/>
      <point x="476" y="55"/>
      <point x="483" y="49"/>
      <point x="483" y="35" type="curve" smooth="yes"/>
      <point x="483" y="28"/>
      <point x="477" y="21"/>
      <point x="462" y="18" type="curve" smooth="yes"/>
      <point x="451" y="16"/>
      <point x="445" y="13"/>
      <point x="445" y="8" type="curve" smooth="yes"/>
      <point x="445" y="3"/>
      <point x="449" y="0"/>
      <point x="456" y="0" type="curve" smooth="yes"/>
      <point x="617" y="0" type="line" smooth="yes"/>
      <point x="627" y="0"/>
      <point x="631" y="3"/>
      <point x="631" y="8" type="curve" smooth="yes"/>
      <point x="631" y="14"/>
      <point x="628" y="15"/>
      <point x="615" y="19" type="curve" smooth="yes"/>
      <point x="594" y="25"/>
      <point x="578" y="35"/>
      <point x="561" y="62" type="curve" smooth="yes"/>
      <point x="343" y="421" type="line"/>
    </contour>
    <contour>
      <point x="209" y="50" type="curve" smooth="yes"/>
      <point x="209" y="641" type="line" smooth="yes"/>
      <point x="209" y="659"/>
      <point x="215" y="667"/>
      <point x="231" y="671" type="curve" smooth="yes"/>
      <point x="291" y="686" type="line" smooth="yes"/>
      <point x="296" y="687"/>
      <point x="299" y="689"/>
      <point x="299" y="693" type="curve" smooth="yes"/>
      <point x="299" y="698"/>
      <point x="295" y="700"/>
      <point x="288" y="700" type="curve" smooth="yes"/>
      <point x="51" y="700" type="line" smooth="yes"/>
      <point x="43" y="700"/>
      <point x="40" y="698"/>
      <point x="40" y="693" type="curve" smooth="yes"/>
      <point x="40" y="689"/>
      <point x="43" y="687"/>
      <point x="48" y="686" type="curve" smooth="yes"/>
      <point x="108" y="671" type="line" smooth="yes"/>
      <point x="123" y="667"/>
      <point x="130" y="659"/>
      <point x="130" y="641" type="curve" smooth="yes"/>
      <point x="130" y="50" type="line" smooth="yes"/>
      <point x="130" y="35"/>
      <point x="123" y="28"/>
      <point x="107" y="25" type="curve" smooth="yes"/>
      <point x="50" y="15" type="line" smooth="yes"/>
      <point x="43" y="14"/>
      <point x="40" y="12"/>
      <point x="40" y="7" type="curve" smooth="yes"/>
      <point x="40" y="2"/>
      <point x="42" y="0"/>
      <point x="49" y="0" type="curve" smooth="yes"/>
      <point x="290" y="0" type="line" smooth="yes"/>
      <point x="296" y="0"/>
      <point x="299" y="2"/>
      <point x="299" y="7" type="curve" smooth="yes"/>
      <point x="299" y="11"/>
      <point x="296" y="13"/>
      <point x="291" y="14" type="curve" smooth="yes"/>
      <point x="231" y="25" type="line" smooth="yes"/>
      <point x="215" y="28"/>
      <point x="209" y="35"/>
    </contour>
  </outline>
</glyph>
<glyph name="Q" format="2">
  <advance width="747"/>
  <unicode hex="0051"/>
  <outline>
    <contour>
      <point x="409" y="187" type="curve" smooth="yes"/>
      <point x="479.203181320972" y="-42.940854761444626"/>
      <point x="569.0" y="-134.0"/>
      <point x="685" y="-134" type="curve" smooth="yes"/>
      <point x="693" y="-134"/>
      <point x="700" y="-130"/>
      <point x="703" y="-124" type="curve" smooth="yes"/>
      <point x="736" y="-54" type="line" smooth="yes"/>
      <point x="738" y="-49"/>
      <point x="740.0" y="-46"/>
      <point x="740" y="-43" type="curve" smooth="yes"/>
      <point x="740.0" y="-41.0"/>
      <point x="738" y="-39.0"/>
      <point x="735" y="-39" type="curve" smooth="yes"/>
      <point x="728" y="-39.0"/>
      <point x="702" y="-57.0"/>
      <point x="663" y="-57" type="curve" smooth="yes"/>
      <point x="567.0" y="-57.0"/>
      <point x="490.5975893838255" y="0.2072318485234632"/>
      <point x="424" y="200" type="curve" smooth="yes"/>
      <point x="422" y="205"/>
      <point x="419" y="208.0"/>
      <point x="414" y="208" type="curve" smooth="yes"/>
      <point x="410" y="208.0"/>
      <point x="407.0" y="204"/>
      <point x="407" y="200" type="curve" smooth="yes"/>
      <point x="407.0" y="195"/>
      <point x="407" y="192"/>
    </contour>
    <contour>
      <point x="394" y="710" type="curve" smooth="yes"/>
      <point x="187" y="710"/>
      <point x="40" y="553"/>
      <point x="40" y="334" type="curve" smooth="yes"/>
      <point x="40" y="136"/>
      <point x="173" y="-10"/>
      <point x="354" y="-10" type="curve" smooth="yes"/>
      <point x="562" y="-10"/>
      <point x="707" y="150"/>
      <point x="707" y="375" type="curve" smooth="yes"/>
      <point x="707" y="565"/>
      <point x="577" y="710"/>
    </contour>
    <contour>
      <point x="495" y="682"/>
      <point x="627" y="538"/>
      <point x="627" y="325" type="curve" smooth="yes"/>
      <point x="627" y="119"/>
      <point x="527" y="22"/>
      <point x="392" y="22" type="curve" smooth="yes"/>
      <point x="250" y="22"/>
      <point x="120" y="160"/>
      <point x="120" y="384" type="curve" smooth="yes"/>
      <point x="120" y="577"/>
      <point x="220" y="682"/>
      <point x="349" y="682" type="curve" smooth="yes"/>
    </contour>
  </outline>
</glyph>
<glyph name="T" format="1">
  <advance width="559"/>
  <unicode hex="0054"/>
  <outline>
    <contour>
      <point x="90" y="700" type="line" smooth="yes"/>
      <point x="83" y="700"/>
      <point x="68" y="715"/>
      <point x="62" y="715" type="curve" smooth="yes"/>
      <point x="57" y="715"/>
      <point x="54" y="713"/>
      <point x="53" y="708" type="curve" smooth="yes"/>
      <point x="4" y="538" type="line" smooth="yes"/>
      <point x="3" y="533"/>
      <point x="5" y="527"/>
      <point x="10" y="527" type="curve" smooth="yes"/>
      <point x="13" y="527"/>
      <point x="16" y="528"/>
      <point x="19" y="533" type="curve" smooth="yes"/>
      <point x="72.57512483930896" y="642.0984360364109"/>
      <point x="115.0" y="683"/>
      <point x="188" y="683" type="curve" smooth="yes"/>
      <point x="240" y="683" type="line"/>
      <point x="240" y="49" type="line" smooth="yes"/>
      <point x="240" y="35"/>
      <point x="232" y="28"/>
      <point x="212" y="24" type="curve" smooth="yes"/>
      <point x="163" y="15" type="line" smooth="yes"/>
      <point x="155" y="14"/>
      <point x="151" y="11"/>
      <point x="151" y="7" type="curve" smooth="yes"/>
      <point x="151" y="3"/>
      <point x="156" y="0"/>
      <point x="163" y="0" type="curve" smooth="yes"/>
      <point x="397" y="0" type="line" smooth="yes"/>
      <point x="404" y="0"/>
      <point x="408" y="2"/>
      <point x="408" y="5" type="curve" smooth="yes"/>
      <point x="408" y="10"/>
      <point x="404" y="12"/>
      <point x="395" y="14" type="curve" smooth="yes"/>
      <point x="339" y="25" type="line" smooth="yes"/>
      <point x="325" y="28"/>
      <point x="319" y="35"/>
      <point x="319" y="49" type="curve" smooth="yes"/>
      <point x="319" y="683" type="line"/>
      <point x="370" y="683" type="line" smooth="yes"/>
      <point x="429.0" y="683"/>
      <point x="491.30617574455584" y="644.8596200184082"/>
      <point x="537" y="535" type="curve" smooth="yes"/>
      <point x="540" y="528"/>
      <point x="544" y="525"/>
      <point x="549" y="525" type="curve" smooth="yes"/>
      <point x="553" y="525"/>
      <point x="555" y="529"/>
      <point x="554" y="535" type="curve" smooth="yes"/>
      <point x="516" y="708" type="line" smooth="yes"/>
      <point x="515" y="712"/>
      <point x="513" y="715"/>
      <point x="509" y="715" type="curve" smooth="yes"/>
      <point x="502" y="715"/>
      <point x="484" y="700"/>
      <point x="477" y="700" type="curve" smooth="yes"/>
    </contour>
  </outline>
</glyph>
<glyph name="V" format="1">
  <advance width="595"/>
  <unicode hex="0056"/>
  <outline>
    <contour>
      <point x="418" y="694" type="curve" smooth="yes"/>
      <point x="418" y="691"/>
      <point x="421" y="688"/>
      <point x="426" y="686" type="curve" smooth="yes"/>
      <point x="478" y="668" type="line" smooth="yes"/>
      <point x="497" y="661"/>
      <point x="505" y="634"/>
      <point x="493" y="598" type="curve" smooth="yes"/>
      <point x="312" y="57" type="line"/>
      <point x="335" y="69" type="line"/>
      <point x="152" y="620" type="line" smooth="yes"/>
      <point x="142" y="651"/>
      <point x="154" y="667"/>
      <point x="179" y="675" type="curve" smooth="yes"/>
      <point x="218" y="687" type="line" smooth="yes"/>
      <point x="223" y="688"/>
      <point x="226" y="690"/>
      <point x="226" y="694" type="curve" smooth="yes"/>
      <point x="226" y="698"/>
      <point x="223" y="700"/>
      <point x="218" y="700" type="curve" smooth="yes"/>
      <point x="11" y="700" type="line" smooth="yes"/>
      <point x="5" y="700"/>
      <point x="0" y="697"/>
      <point x="0" y="693" type="curve" smooth="yes"/>
      <point x="0" y="690"/>
      <point x="2" y="687"/>
      <point x="9" y="686" type="curve" smooth="yes"/>
      <point x="34.35460603722601" y="680.7177904089112"/>
      <point x="49.74387822748391" y="664.1803923968823"/>
      <point x="63" y="626" type="curve" smooth="yes"/>
      <point x="255" y="73" type="line" smooth="yes"/>
      <point x="256" y="70"/>
      <point x="257" y="65"/>
      <point x="257" y="56" type="curve" smooth="yes"/>
      <point x="257" y="18" type="line" smooth="yes"/>
      <point x="257" y="8"/>
      <point x="263" y="0"/>
      <point x="270" y="0" type="curve" smooth="yes"/>
      <point x="326" y="0" type="line" smooth="yes"/>
      <point x="335" y="0"/>
      <point x="341" y="6"/>
      <point x="341" y="16" type="curve" smooth="yes"/>
      <point x="341" y="56" type="line" smooth="yes"/>
      <point x="341" y="66"/>
      <point x="342" y="72"/>
      <point x="344" y="78" type="curve" smooth="yes"/>
      <point x="519" y="592" type="line" smooth="yes"/>
      <point x="539" y="651"/>
      <point x="557" y="678.0"/>
      <point x="580" y="685" type="curve" smooth="yes"/>
      <point x="590" y="688"/>
      <point x="592" y="691"/>
      <point x="592" y="694" type="curve" smooth="yes"/>
      <point x="592" y="698"/>
      <point x="588.0" y="700.0"/>
      <point x="580" y="700" type="curve" smooth="yes"/>
      <point x="427" y="700" type="line" smooth="yes"/>
      <point x="421" y="700"/>
      <point x="418" y="698"/>
    </contour>
  </outline>
</glyph>
<glyph name="j" format="1">
  <advance width="249"/>
  <unicode hex="006A"/>
  <outline>
    <contour>
      <point x="129.0" y="536.0" type="curve" smooth="yes"/>
      <point x="160.0" y="536.0"/>
      <point x="183" y="560"/>
      <point x="183" y="590" type="curve" smooth="yes"/>
      <point x="183" y="620"/>
      <point x="160" y="643"/>
      <point x="129.0" y="643.0" type="curve" smooth="yes"/>
      <point x="99" y="643"/>
      <point x="76" y="620"/>
      <point x="76" y="590" type="curve" smooth="yes"/>
      <point x="76" y="560"/>
      <point x="99.0" y="536.0"/>
    </contour>
    <contour>
      <point x="176" y="26" type="line" smooth="yes"/>
      <point x="176.0" y="-16.391304347826086"/>
      <point x="211.0" y="-60.95652173913044"/>
      <point x="211.0" y="-124.0" type="curve" smooth="yes"/>
      <point x="211.0" y="-189.54166666666666"/>
      <point x="156.4230769230769" y="-245.0"/>
      <point x="82" y="-245" type="curve" smooth="yes"/>
      <point x="21.459459459459453" y="-245.0"/>
      <point x="-30.0" y="-206.5581395348837"/>
      <point x="-30" y="-158" type="curve" smooth="yes"/>
      <point x="-30.0" y="-122.0"/>
      <point x="-8.385964912280706" y="-99.0"/>
      <point x="26" y="-99" type="curve" smooth="yes"/>
      <point x="53.0" y="-99.0"/>
      <point x="70.0" y="-119.0"/>
      <point x="70" y="-149" type="curve" smooth="yes"/>
      <point x="70" y="-174" type="line" smooth="yes"/>
      <point x="70.0" y="-202.54054054054052"/>
      <point x="83.0" y="-218.0"/>
      <point x="108" y="-218" type="curve" smooth="yes"/>
      <point x="152.22950819672133" y="-218.0"/>
      <point x="179.0" y="-187.66666666666666"/>
      <point x="179" y="-148" type="curve" smooth="yes"/>
      <point x="179.0" y="-97.35064935064935"/>
      <point x="105.0" y="-53.75"/>
      <point x="105" y="8" type="curve" smooth="yes"/>
      <point x="105" y="348" type="line" smooth="yes"/>
      <point x="105" y="364"/>
      <point x="97" y="370"/>
      <point x="86" y="370" type="curve" smooth="yes"/>
      <point x="36" y="370" type="line" smooth="yes"/>
      <point x="30.666666666666664" y="370.0"/>
      <point x="28.0" y="373.0"/>
      <point x="28" y="376" type="curve" smooth="yes"/>
      <point x="28.0" y="378.3333333333333"/>
      <point x="31" y="381"/>
      <point x="35" y="383" type="curve" smooth="yes"/>
      <point x="145" y="433" type="line" smooth="yes"/>
      <point x="154.61862116234778" y="437.3721005283399"/>
      <point x="161.07692307692307" y="440.0"/>
      <point x="167" y="440" type="curve" smooth="yes"/>
      <point x="172.0" y="440.0"/>
      <point x="176" y="435"/>
      <point x="176" y="429" type="curve" smooth="yes"/>
    </contour>
  </outline>
</glyph>
<glyph name="k" format="2">
  <advance width="475"/>
  <unicode hex="006B"/>
  <outline>
    <contour>
      <point x="261" y="293" type="line"/>
      <point x="421" y="54" type="line" smooth="yes"/>
      <point x="438" y="28"/>
      <point x="452" y="17"/>
      <point x="471" y="14" type="curve" smooth="yes"/>
      <point x="478" y="12"/>
      <point x="482.0" y="11"/>
      <point x="482" y="6" type="curve" smooth="yes"/>
      <point x="482.0" y="2.0"/>
      <point x="479.0" y="0.0"/>
      <point x="470" y="0.0" type="curve" smooth="yes"/>
      <point x="310" y="0.0" type="line" smooth="yes"/>
      <point x="305" y="0"/>
      <point x="302" y="2"/>
      <point x="302" y="5" type="curve" smooth="yes"/>
      <point x="302.0" y="9.0"/>
      <point x="306.0" y="12.0"/>
      <point x="313" y="13" type="curve" smooth="yes"/>
      <point x="335" y="16"/>
      <point x="344.0" y="23"/>
      <point x="344" y="37" type="curve" smooth="yes"/>
      <point x="344.0" y="45"/>
      <point x="341" y="52"/>
      <point x="337" y="59" type="curve" smooth="yes"/>
      <point x="215" y="255" type="line"/>
    </contour>
    <contour>
      <point x="125" y="198" type="line"/>
      <point x="316" y="351" type="line" smooth="yes"/>
      <point x="342" y="372"/>
      <point x="348.0" y="384.0"/>
      <point x="348" y="394" type="curve" smooth="yes"/>
      <point x="348" y="405"/>
      <point x="343" y="411"/>
      <point x="314" y="416" type="curve" smooth="yes"/>
      <point x="307" y="417"/>
      <point x="304.0" y="421"/>
      <point x="304" y="425" type="curve" smooth="yes"/>
      <point x="304.0" y="430.0"/>
      <point x="308" y="432"/>
      <point x="316" y="432" type="curve" smooth="yes"/>
      <point x="453" y="430" type="line" smooth="yes"/>
      <point x="461" y="430"/>
      <point x="464.0" y="426.0"/>
      <point x="464" y="422" type="curve" smooth="yes"/>
      <point x="464.0" y="417"/>
      <point x="461" y="415"/>
      <point x="451" y="413.0" type="curve" smooth="yes"/>
      <point x="418" y="406"/>
      <point x="384" y="380"/>
      <point x="353" y="356" type="curve" smooth="yes"/>
      <point x="135" y="185" type="line"/>
    </contour>
    <component base="l"/>
  </outline>
</glyph>
<glyph name="m" format="1">
  <advance width="766"/>
  <unicode hex="006D"/>
  <outline>
    <contour>
      <point x="63" y="23" type="curve" smooth="yes"/>
      <point x="23" y="13" type="line" smooth="yes"/>
      <point x="17" y="11"/>
      <point x="15" y="10"/>
      <point x="15" y="6" type="curve" smooth="yes"/>
      <point x="15" y="2"/>
      <point x="18" y="0"/>
      <point x="23" y="0" type="curve" smooth="yes"/>
      <point x="199" y="0" type="line" smooth="yes"/>
      <point x="203" y="0"/>
      <point x="205" y="2"/>
      <point x="205" y="5" type="curve" smooth="yes"/>
      <point x="205" y="10"/>
      <point x="202" y="11"/>
      <point x="195" y="13" type="curve" smooth="yes"/>
      <point x="160" y="22" type="line" smooth="yes"/>
      <point x="151" y="24"/>
      <point x="146" y="29"/>
      <point x="146" y="40" type="curve" smooth="yes"/>
      <point x="146" y="430" type="line" smooth="yes"/>
      <point x="146" y="436"/>
      <point x="142" y="440"/>
      <point x="137" y="440" type="curve" smooth="yes"/>
      <point x="131" y="440"/>
      <point x="126" y="439"/>
      <point x="118" y="435" type="curve" smooth="yes"/>
      <point x="24" y="392" type="line" smooth="yes"/>
      <point x="17" y="389"/>
      <point x="15" y="387"/>
      <point x="15" y="383" type="curve" smooth="yes"/>
      <point x="15" y="380"/>
      <point x="18" y="379"/>
      <point x="23" y="379" type="curve" smooth="yes"/>
      <point x="63" y="379" type="line" smooth="yes"/>
      <point x="70" y="379"/>
      <point x="75" y="375"/>
      <point x="75" y="364" type="curve" smooth="yes"/>
      <point x="75" y="40" type="line" smooth="yes"/>
      <point x="75" y="29"/>
      <point x="72" y="25"/>
    </contour>
    <contour>
      <point x="427" y="317" type="line" smooth="yes"/>
      <point x="427" y="390"/>
      <point x="371" y="440"/>
      <point x="302" y="440" type="curve" smooth="yes"/>
      <point x="236" y="440"/>
      <point x="179" y="406"/>
      <point x="135" y="354" type="curve"/>
      <point x="121" y="338" type="line"/>
      <point x="130" y="333" type="line"/>
      <point x="142" y="346" type="line" smooth="yes"/>
      <point x="176" y="383"/>
      <point x="219" y="398"/>
      <point x="255" y="398" type="curve" smooth="yes"/>
      <point x="318" y="398"/>
      <point x="356" y="356"/>
      <point x="356" y="278" type="curve" smooth="yes"/>
      <point x="356" y="42" type="line" smooth="yes"/>
      <point x="356" y="30"/>
      <point x="350" y="22"/>
      <point x="339" y="20" type="curve" smooth="yes"/>
      <point x="307" y="13" type="line" smooth="yes"/>
      <point x="301" y="12"/>
      <point x="298" y="10"/>
      <point x="298" y="6" type="curve" smooth="yes"/>
      <point x="298" y="2"/>
      <point x="301" y="0"/>
      <point x="305" y="0" type="curve" smooth="yes"/>
      <point x="476" y="0" type="line" smooth="yes"/>
      <point x="482" y="0"/>
      <point x="485" y="2"/>
      <point x="485" y="5" type="curve" smooth="yes"/>
      <point x="485" y="9"/>
      <point x="482" y="10"/>
      <point x="476" y="12" type="curve" smooth="yes"/>
      <point x="447" y="20" type="line" smooth="yes"/>
      <point x="435" y="23"/>
      <point x="427" y="30"/>
      <point x="427" y="42" type="curve" smooth="yes"/>
    </contour>
    <contour>
      <point x="411" y="336" type="line" smooth="yes"/>
      <point x="422" y="347" type="line" smooth="yes"/>
      <point x="457" y="382"/>
      <point x="491" y="396"/>
      <point x="524" y="396" type="curve" smooth="yes"/>
      <point x="567" y="396"/>
      <point x="595" y="370"/>
      <point x="605" y="308" type="curve" smooth="yes"/>
      <point x="647" y="55" type="line" smooth="yes"/>
      <point x="650" y="34"/>
      <point x="646" y="27"/>
      <point x="629" y="22" type="curve" smooth="yes"/>
      <point x="600" y="14" type="line" smooth="yes"/>
      <point x="594" y="12"/>
      <point x="590" y="9"/>
      <point x="590" y="6" type="curve" smooth="yes"/>
      <point x="590" y="2"/>
      <point x="594" y="0"/>
      <point x="599" y="0" type="curve" smooth="yes"/>
      <point x="756" y="0" type="line" smooth="yes"/>
      <point x="761" y="0"/>
      <point x="765" y="1"/>
      <point x="765" y="5" type="curve" smooth="yes"/>
      <point x="765" y="8"/>
      <point x="764" y="10"/>
      <point x="760" y="12" type="curve" smooth="yes"/>
      <point x="739" y="23" type="line" smooth="yes"/>
      <point x="731" y="27"/>
      <point x="727" y="33"/>
      <point x="724" y="51" type="curve" smooth="yes"/>
      <point x="678" y="319" type="line" smooth="yes"/>
      <point x="665" y="396"/>
      <point x="625" y="440"/>
      <point x="565" y="440" type="curve" smooth="yes"/>
      <point x="511" y="440"/>
      <point x="464" y="413"/>
      <point x="412" y="354" type="curve" smooth="yes"/>
      <point x="404" y="345" type="line"/>
    </contour>
  </outline>
</glyph>
<glyph name="o" format="1">
  <advance width="479"/>
  <unicode hex="006F"/>
  <outline>
    <contour>
      <point x="248" y="440" type="curve" smooth="yes"/>
      <point x="111" y="440"/>
      <point x="20" y="339"/>
      <point x="20" y="213" type="curve" smooth="yes"/>
      <point x="20" y="83"/>
      <point x="109" y="-10"/>
      <point x="229" y="-10" type="curve" smooth="yes"/>
      <point x="358" y="-10"/>
      <point x="459" y="81"/>
      <point x="459" y="213" type="curve" smooth="yes"/>
      <point x="459" y="345"/>
      <point x="369" y="440"/>
    </contour>
    <contour>
      <point x="309.8490566037736" y="414.0"/>
      <point x="380.0" y="305"/>
      <point x="380" y="166" type="curve" smooth="yes"/>
      <point x="380.0" y="74"/>
      <point x="336.88429752066116" y="18.0"/>
      <point x="269" y="18" type="curve" smooth="yes"/>
      <point x="171.28571428571428" y="18.0"/>
      <point x="98.0" y="120"/>
      <point x="98" y="250" type="curve" smooth="yes"/>
      <point x="98.0" y="348"/>
      <point x="144.85365853658539" y="414.0"/>
      <point x="211" y="414" type="curve" smooth="yes"/>
    </contour>
  </outline>
</glyph>
<glyph name="r" format="1">
  <advance width="338"/>
  <unicode hex="0072"/>
  <outline>
    <contour>
      <point x="134" y="216" type="line"/>
      <point x="134" y="363"/>
      <point x="182" y="440"/>
      <point x="255" y="440" type="curve" smooth="yes"/>
      <point x="300" y="440"/>
      <point x="331" y="412"/>
      <point x="331" y="377" type="curve" smooth="yes"/>
      <point x="331" y="347"/>
      <point x="315" y="329"/>
      <point x="291" y="329" type="curve" smooth="yes"/>
      <point x="271" y="329"/>
      <point x="256" y="345"/>
      <point x="254" y="369" type="curve" smooth="yes"/>
      <point x="252" y="395"/>
      <point x="246" y="407"/>
      <point x="226" y="407" type="curve" smooth="yes"/>
      <point x="188" y="407"/>
      <point x="147" y="342"/>
      <point x="147" y="216" type="curve"/>
    </contour>
    <contour>
      <point x="147" y="432" type="curve" smooth="yes"/>
      <point x="147" y="46" type="line" smooth="yes"/>
      <point x="147" y="35"/>
      <point x="153" y="28"/>
      <point x="164" y="26" type="curve" smooth="yes"/>
      <point x="227" y="13" type="line" smooth="yes"/>
      <point x="232" y="12"/>
      <point x="236" y="10"/>
      <point x="236" y="6" type="curve" smooth="yes"/>
      <point x="236" y="2"/>
      <point x="234" y="0"/>
      <point x="228" y="0" type="curve" smooth="yes"/>
      <point x="25" y="0" type="line" smooth="yes"/>
      <point x="20" y="0"/>
      <point x="16" y="2"/>
      <point x="16" y="6" type="curve" smooth="yes"/>
      <point x="16" y="10"/>
      <point x="18" y="12"/>
      <point x="25" y="14" type="curve" smooth="yes"/>
      <point x="64" y="23" type="line" smooth="yes"/>
      <point x="72" y="25"/>
      <point x="76" y="30"/>
      <point x="76" y="39" type="curve" smooth="yes"/>
      <point x="76" y="364" type="line" smooth="yes"/>
      <point x="76" y="375"/>
      <point x="73" y="379"/>
      <point x="63" y="379" type="curve" smooth="yes"/>
      <point x="22" y="379" type="line" smooth="yes"/>
      <point x="18" y="379"/>
      <point x="15" y="381"/>
      <point x="15" y="384" type="curve" smooth="yes"/>
      <point x="15" y="387"/>
      <point x="19" y="389"/>
      <point x="25" y="392" type="curve" smooth="yes"/>
      <point x="121" y="436" type="line" smooth="yes"/>
      <point x="128" y="439"/>
      <point x="133" y="440"/>
      <point x="138" y="440" type="curve" smooth="yes"/>
      <point x="142" y="440"/>
      <point x="147" y="437"/>
    </contour>
  </outline>
</glyph>
<glyph name="z" format="1">
  <advance width="396"/>
  <unicode hex="007A"/>
  <outline>
    <contour>
      <point x="367" y="399" type="line" smooth="yes"/>
      <point x="375" y="410"/>
      <point x="376.0" y="414.7241379310345"/>
      <point x="376" y="418" type="curve" smooth="yes"/>
      <point x="376.0" y="425.0"/>
      <point x="371.0" y="430.0"/>
      <point x="361" y="430" type="curve" smooth="yes"/>
      <point x="100" y="430" type="line" smooth="yes"/>
      <point x="91" y="430"/>
      <point x="83.67999999999999" y="440.0"/>
      <point x="76" y="440" type="curve" smooth="yes"/>
      <point x="71.5" y="440.0"/>
      <point x="69" y="438"/>
      <point x="67" y="431" type="curve" smooth="yes"/>
      <point x="40" y="325" type="line" smooth="yes"/>
      <point x="39" y="321"/>
      <point x="39.0" y="320"/>
      <point x="39" y="317" type="curve" smooth="yes"/>
      <point x="39.0" y="312"/>
      <point x="43.0" y="309.0"/>
      <point x="47" y="309" type="curve" smooth="yes"/>
      <point x="51" y="309.0"/>
      <point x="55" y="310"/>
      <point x="58" y="316" type="curve" smooth="yes"/>
      <point x="74" y="347" type="line" smooth="yes"/>
      <point x="97.29290572877304" y="392.13000484949777"/>
      <point x="123" y="413"/>
      <point x="159" y="413" type="curve" smooth="yes"/>
      <point x="311" y="413" type="line"/>
      <point x="302" y="417" type="line"/>
      <point x="37" y="36" type="line" smooth="yes"/>
      <point x="29" y="25"/>
      <point x="27.0" y="19"/>
      <point x="27" y="14" type="curve" smooth="yes"/>
      <point x="27.0" y="6.0"/>
      <point x="33" y="0"/>
      <point x="47" y="0" type="curve" smooth="yes"/>
      <point x="281" y="0" type="line" smooth="yes"/>
      <point x="303.0" y="0.0"/>
      <point x="311" y="-10.0"/>
      <point x="322" y="-10" type="curve" smooth="yes"/>
      <point x="332" y="-10.0"/>
      <point x="336" y="-6"/>
      <point x="339" y="5" type="curve" smooth="yes"/>
      <point x="367" y="109" type="line" smooth="yes"/>
      <point x="370" y="119"/>
      <point x="371.0" y="121"/>
      <point x="371" y="126" type="curve" smooth="yes"/>
      <point x="371.0" y="131"/>
      <point x="369.0" y="133.0"/>
      <point x="366" y="133" type="curve" smooth="yes"/>
      <point x="361" y="133.0"/>
      <point x="358" y="130"/>
      <point x="355" y="124" type="curve" smooth="yes"/>
      <point x="341" y="97" type="line" smooth="yes"/>
      <point x="312" y="41"/>
      <point x="286" y="18"/>
      <point x="227" y="18" type="curve" smooth="yes"/>
      <point x="99" y="18" type="line"/>
      <point x="102" y="15" type="line"/>
    </contour>
    <contour>
      <point x="228" y="493" type="move" name="center"/>
    </contour>
  </outline>
</glyph>
<glyph name="exclamdown" format="1">
  <advance width="222"/>
  <unicode hex="00A1"/>
  <outline>
    <contour>
      <point x="152" y="-221"/>
      <point x="136" y="-236"/>
      <point x="109" y="-236" type="curve" smooth="yes"/>
      <point x="80" y="-236"/>
      <point x="65" y="-217"/>
      <point x="65" y="-189" type="curve" smooth="yes"/>
      <point x="65" y="-184"/>
      <point x="66" y="-176"/>
      <point x="66" y="-171" type="curve" smooth="yes"/>
      <point x="98" y="297" type="line" smooth="yes"/>
      <point x="98" y="304"/>
      <point x="101" y="307"/>
      <point x="108" y="307" type="curve" smooth="yes"/>
      <point x="114" y="307"/>
      <point x="117" y="303"/>
      <point x="118" y="296" type="curve" smooth="yes"/>
      <point x="151" y="-164" type="line" smooth="yes"/>
      <point x="152" y="-173"/>
      <point x="152" y="-182"/>
      <point x="152" y="-189" type="curve" smooth="yes"/>
    </contour>
    <contour>
      <point x="111" y="487" type="curve" smooth="yes"/>
      <point x="82" y="487"/>
      <point x="60" y="464"/>
      <point x="60" y="435" type="curve" smooth="yes"/>
      <point x="60" y="407"/>
      <point x="82" y="385"/>
      <point x="111" y="385" type="curve" smooth="yes"/>
      <point x="140" y="385"/>
      <point x="162" y="407"/>
      <point x="162" y="435" type="curve" smooth="yes"/>
      <point x="162" y="464"/>
      <point x="140" y="487"/>
    </contour>
  </outline>
</glyph>
<glyph name="questiondown" format="1">
  <advance width="381"/>
  <unicode hex="00BF"/>
  <outline>
    <contour>
      <point x="248" y="179" type="line" smooth="yes"/>
      <point x="249" y="172"/>
      <point x="249" y="170"/>
      <point x="249" y="166" type="curve" smooth="yes"/>
      <point x="249" y="158"/>
      <point x="244" y="151"/>
      <point x="235" y="145" type="curve" smooth="yes"/>
      <point x="176" y="103" type="line" smooth="yes"/>
      <point x="112" y="57"/>
      <point x="82" y="7"/>
      <point x="82" y="-79" type="curve" smooth="yes"/>
      <point x="82" y="-181"/>
      <point x="122" y="-230"/>
      <point x="184" y="-230" type="curve" smooth="yes"/>
      <point x="243" y="-230"/>
      <point x="277" y="-202"/>
      <point x="277" y="-132" type="curve" smooth="yes"/>
      <point x="277" y="-115" type="line" smooth="yes"/>
      <point x="277" y="-89"/>
      <point x="297" y="-71"/>
      <point x="321" y="-71" type="curve" smooth="yes"/>
      <point x="348" y="-71"/>
      <point x="366" y="-87"/>
      <point x="366" y="-115" type="curve" smooth="yes"/>
      <point x="366" y="-179"/>
      <point x="293" y="-245"/>
      <point x="171" y="-245" type="curve" smooth="yes"/>
      <point x="66" y="-245"/>
      <point x="6" y="-186"/>
      <point x="6" y="-87" type="curve" smooth="yes"/>
      <point x="6" y="-14"/>
      <point x="50" y="52"/>
      <point x="161" y="113" type="curve" smooth="yes"/>
      <point x="170" y="118" type="line" smooth="yes"/>
      <point x="185" y="126"/>
      <point x="192" y="139"/>
      <point x="195" y="166" type="curve" smooth="yes"/>
      <point x="210" y="298" type="line" smooth="yes"/>
      <point x="211" y="304"/>
      <point x="213" y="307"/>
      <point x="219" y="307" type="curve" smooth="yes"/>
      <point x="227" y="307"/>
      <point x="230" y="303"/>
      <point x="231" y="298" type="curve" smooth="yes"/>
    </contour>
    <contour>
      <point x="225" y="472" type="curve" smooth="yes"/>
      <point x="196" y="472"/>
      <point x="174" y="449"/>
      <point x="174" y="420" type="curve" smooth="yes"/>
      <point x="174" y="392"/>
      <point x="196" y="370"/>
      <point x="225" y="370" type="curve" smooth="yes"/>
      <point x="254" y="370"/>
      <point x="276" y="392"/>
      <point x="276" y="420" type="curve" smooth="yes"/>
      <point x="276" y="449"/>
      <point x="254" y="472"/>
    </contour>
  </outline>
</glyph>
<glyph name="dotlessi" format="1">
  <advance width="245"/>
  <unicode hex="0131"/>
  <outline>
    <contour>
      <point x="163" y="429" type="line" smooth="yes"/>
      <point x="163" y="435"/>
      <point x="159" y="440"/>
      <point x="153" y="440" type="curve" smooth="yes"/>
      <point x="148" y="440"/>
      <point x="144" y="439"/>
      <point x="137" y="436" type="curve" smooth="yes"/>
      <point x="35" y="390" type="line" smooth="yes"/>
      <point x="31" y="388"/>
      <point x="30" y="386"/>
      <point x="30" y="384" type="curve" smooth="yes"/>
      <point x="30" y="380"/>
      <point x="32" y="379"/>
      <point x="35" y="379" type="curve" smooth="yes"/>
      <point x="79" y="379" type="line" smooth="yes"/>
      <point x="86" y="379"/>
      <point x="91" y="374"/>
      <point x="91" y="366" type="curve" smooth="yes"/>
      <point x="91" y="39" type="line" smooth="yes"/>
      <point x="91" y="29"/>
      <point x="88" y="25"/>
      <point x="80" y="23" type="curve" smooth="yes"/>
      <point x="38" y="13" type="line" smooth="yes"/>
      <point x="33" y="12"/>
      <point x="31" y="10"/>
      <point x="31" y="6" type="curve" smooth="yes"/>
      <point x="31" y="2"/>
      <point x="35" y="0"/>
      <point x="41" y="0" type="curve" smooth="yes"/>
      <point x="215" y="0" type="line" smooth="yes"/>
      <point x="220" y="0"/>
      <point x="222" y="2"/>
      <point x="222" y="6" type="curve" smooth="yes"/>
      <point x="222" y="9"/>
      <point x="219" y="11"/>
      <point x="215" y="12" type="curve" smooth="yes"/>
      <point x="177" y="22" type="line" smooth="yes"/>
      <point x="168" y="24"/>
      <point x="163" y="31"/>
      <point x="163" y="39" type="curve" smooth="yes"/>
    </contour>
  </outline>
</glyph>
<glyph name="five.alt" format="1">
  <advance width="461"/>
  <outline>
    <contour>
      <point x="46" y="118" type="curve" smooth="yes"/>
      <point x="46" y="47"/>
      <point x="111" y="-10"/>
      <point x="215" y="-10" type="curve" smooth="yes"/>
      <point x="340" y="-10"/>
      <point x="437" y="79"/>
      <point x="437" y="200" type="curve" smooth="yes"/>
      <point x="437" y="307"/>
      <point x="354" y="387"/>
      <point x="230" y="387" type="curve" smooth="yes"/>
      <point x="156" y="387"/>
      <point x="97" y="348"/>
      <point x="76" y="287" type="curve"/>
      <point x="96" y="299" type="line"/>
      <point x="96" y="592" type="line"/>
      <point x="87" y="585" type="line"/>
      <point x="140" y="543"/>
      <point x="211" y="531"/>
      <point x="271" y="531" type="curve" smooth="yes"/>
      <point x="363" y="531"/>
      <point x="425" y="575"/>
      <point x="428" y="652" type="curve" smooth="yes"/>
      <point x="428" y="658"/>
      <point x="426" y="661"/>
      <point x="423" y="661" type="curve" smooth="yes"/>
      <point x="421" y="661"/>
      <point x="419" y="659"/>
      <point x="417" y="654" type="curve" smooth="yes"/>
      <point x="403" y="621"/>
      <point x="352" y="598"/>
      <point x="285" y="598" type="curve" smooth="yes"/>
      <point x="198" y="598"/>
      <point x="111" y="659"/>
      <point x="89" y="659" type="curve" smooth="yes"/>
      <point x="76" y="659"/>
      <point x="70" y="651"/>
      <point x="70" y="638" type="curve" smooth="yes"/>
      <point x="70" y="282" type="line" smooth="yes"/>
      <point x="70" y="273"/>
      <point x="73" y="268"/>
      <point x="78" y="267" type="curve" smooth="yes"/>
      <point x="84" y="266"/>
      <point x="89" y="269"/>
      <point x="92" y="276" type="curve" smooth="yes"/>
      <point x="115" y="336"/>
      <point x="167" y="366"/>
      <point x="223" y="366" type="curve" smooth="yes"/>
      <point x="311" y="366"/>
      <point x="354" y="304"/>
      <point x="354" y="190" type="curve" smooth="yes"/>
      <point x="354" y="66"/>
      <point x="297" y="8"/>
      <point x="220" y="8" type="curve" smooth="yes"/>
      <point x="168" y="8"/>
      <point x="143" y="41"/>
      <point x="143" y="95" type="curve" smooth="yes"/>
      <point x="143" y="117" type="line" smooth="yes"/>
      <point x="143" y="151"/>
      <point x="123" y="173"/>
      <point x="96" y="173" type="curve" smooth="yes"/>
      <point x="67" y="173"/>
      <point x="46" y="150"/>
    </contour>
  </outline>
</glyph>
